<?xml version="1.0" encoding="utf-8"?>
<!-- Generator: Adobe Illustrator 24.0.2, SVG Export Plug-In . SVG Version: 6.00 Build 0)  -->
<svg version="1.1" id="Layer_1" xmlns="http://www.w3.org/2000/svg" xmlns:xlink="http://www.w3.org/1999/xlink" x="0px" y="0px"
	 viewBox="0 0 595.28 841.89" style="enable-background:new 0 0 595.28 841.89;" xml:space="preserve">
<style type="text/css">
	.st0{fill:#F3F3F3;}
</style>
<g>
	<path class="st0" d="M355.37,314.04c7.07-7.79,13.98-15.73,21.25-23.31c7.12-7.43,14.05-15.24,23.74-19.33
		c0.55,0.27,1.1,0.53,1.66,0.8c-0.61,2.8-0.76,5.82-1.91,8.37c-6.41,14.21-13.74,28.04-19.48,42.52
		c-7.76,19.61-14.38,39.68-21.45,59.56c-0.48,1.35-0.72,2.78-1.28,4.96c10.44-0.58,20.38-0.94,30.28-1.73
		c23.22-1.85,46.27-4.61,68-14.05c1.87-0.81,5.3-0.95,6.38,0.19c1.11,1.17,1,4.69,0.08,6.47c-2.42,4.68-5.53,8.99-8.44,13.4
		c-1.27,1.93-2.72,3.74-4.09,5.6c0.36,0.48,0.72,0.96,1.08,1.44c2.72-1.72,6.07-2.9,8.05-5.26c5.86-6.97,11.68-14.08,16.58-21.75
		c5.91-9.24,10.73-19.2,16.34-28.66c1.37-2.31,3.97-3.88,6.01-5.78c1.15,2.71,3.36,5.44,3.29,8.11c-0.89,32.11-9.28,61.6-32.87,84.4
		c-13.39,12.95-30.4,15.33-47.92,10.66c-15.25-4.06-30.13-9.52-45.28-14.01c-8.66-2.57-17.53-4.42-26.85-6.74
		c-2.35,8.83-4.47,16.95-6.67,25.04c-14.71,54.22-32.65,107.2-59.48,156.68c-17.17,31.65-37.32,61.02-65.27,84.1
		c-18.33,15.14-38.54,26.71-62.49,28.91c-10.52,0.97-21.31-0.51-31.92-1.55c-2.52-0.25-4.79-3.19-7.17-4.9
		c1.9-2.3,3.38-5.35,5.79-6.72c4.71-2.68,9.78-4.98,14.98-6.43c27.86-7.8,48.34-25.36,64.23-49.13
		c17.73-26.53,29.08-56.02,37.34-86.61c8.52-31.55,15.66-63.5,22.98-95.37c1.96-8.53,5.9-15.24,12.45-20.71
		c12.12-10.13,26.49-15.86,40.83-21.65c1.83-0.74,3.66-1.49,5.36-3.6c-6.65,0.42-13.33,0.55-19.93,1.32
		c-51.59,5.98-100.73,20.04-146,46.35c-15.37,8.93-29.41,19.74-40.38,34.07c-3.22,4.2-5.64,9.03-7.7,14.2
		c11.18-8.15,21.58-17.03,34.16-22.27c0.53,0.49,1.06,0.97,1.59,1.46c-1.13,2.3-1.99,4.79-3.43,6.88
		c-20.17,29.17-28.61,61.58-26.41,97c0.17,2.72-0.05,5.53-0.54,8.22c-0.26,1.44-1.27,3.58-2.31,3.82c-1.14,0.27-3.28-0.91-3.98-2.08
		c-4.61-7.67-8.99-15.48-13.34-23.3c-0.95-1.71-1.43-3.67-2.13-5.52c-0.66,0.02-1.32,0.04-1.98,0.05c0,5.02-0.78,10.18,0.13,15.02
		c4.09,21.78,17.97,36.65,35.55,48.04c8.62,5.59,18.57,9.06,27.94,13.44c2.14,1,4.42,1.69,6.55,2.72c5.63,2.74,6.49,6.1,1.92,10.58
		c-3.46,3.39-7.55,6.41-11.85,8.59c-31.59,16.02-78.41,9.2-104.14-15.2c-16.06-15.23-23.25-34.81-25.32-56.51
		c-4.82-50.48,15.02-91.19,49.75-125.46c34.45-33.99,76.3-55.17,121.67-69.78c26.92-8.67,54.5-14.19,82.63-16.69
		c3.64-0.32,4.8-1.77,5.61-5.13c7.76-32,16.14-63.83,31.62-93.13c20.14-38.13,48.41-67.38,89.33-82.34
		c14.8-5.41,30.06-8.8,45.93-6.28c2.95,0.47,7.94,2.57,7.98,4.01c0.08,3.12-1.65,7.32-4.06,9.29c-9.75,7.95-19.96,15.34-30.16,22.7
		c-17.03,12.29-34.36,24.37-47.43,41.15c-5.99,7.69-10.19,16.82-15.07,25.37c-0.82,1.44-0.94,3.28-1.39,4.93
		C354.67,313.67,355.02,313.85,355.37,314.04z"/>
	<path class="st0" d="M207.1,158.58c-13.03,2.2-24.83,7.55-35.58,15.28c-20.94,15.06-34.66,35.86-45.08,59.14
		c-9.73,21.74-15.96,44.55-19.42,68.16c-0.66,4.53-1.67,9.05-2.93,13.45c-1.42,4.98-3.95,5.9-7.24,1.91
		c-4.36-5.28-8.61-11.06-11.22-17.34c-9.36-22.55-8.32-45.68-1.46-68.64c12.33-41.24,40.14-68.19,78.13-85.33
		c33.06-14.92,68.04-18.84,103.83-17.77c34.53,1.03,67.99,8.81,101.53,16.2c32.62,7.19,65.21,14.67,98.03,20.81
		c24.76,4.64,49.86,4.94,74.76-0.26c2.04-0.43,4.07-0.96,6.1-1.45c0-0.51-0.01-1.01-0.01-1.52c-4.74-0.48-9.48-1.07-14.23-1.42
		c-11.23-0.82-22.49-1.25-33.68-2.43c-4.6-0.48-9.1-2.32-13.54-3.86c-1.13-0.39-1.85-2-2.76-3.05c1.15-0.98,2.21-2.65,3.47-2.83
		c6.82-0.95,13.69-1.63,20.55-2.22c21.76-1.87,43.36-4.59,64-12.33c3.9-1.46,7.6-3.48,11.4-5.22c4.26-1.95,6.55-0.89,6.33,3.8
		c-0.23,4.87-0.89,10.02-2.71,14.48c-12.81,31.44-36.41,49.12-69.28,54.4c-20.63,3.31-40.94-0.12-61.15-3.89
		c-35.2-6.57-70.4-13.07-106.33-13.75c-48.4-0.91-96.2,3.23-142.44,18.86c-12.54,4.24-24.61,9.92-36.96,14.75
		c-3.35,1.31-6.92,2.26-10.47,2.81c-3.35,0.52-4.98-1.53-3.58-4.7c1.69-3.83,3.67-7.61,6.05-11.03
		c10.08-14.49,23.59-25.38,37.29-36.07c3.12-2.43,6.14-4.99,9.2-7.49C207.52,159.54,207.31,159.06,207.1,158.58z"/>
	<path class="st0" d="M65.32,696.52c7.08,1.94,14.25,3.59,21.16,6.02c1.91,0.67,3.02,3.64,4.5,5.56c-2.05,0.91-4.21,2.77-6.15,2.56
		c-9.99-1.07-19.95-2.5-29.85-4.24c-1.68-0.3-3-2.7-4.49-4.13c1.78-1.26,3.4-3.08,5.37-3.65c2.9-0.85,6.06-0.81,9.1-1.14
		C65.08,697.16,65.2,696.84,65.32,696.52z"/>
	<path class="st0" d="M7.18,685.1c6.92,1.45,11.83,4.02,15.4,9.69C16.17,695.91,10.04,692.14,7.18,685.1z"/>
</g>
</svg>
